# MagicaVoxel @ Ephtracy

# material
mtllib nanar2.mtl
usemtl palette

# normals
vn -1 0 0
vn 1 0 0
vn 0 0 1
vn 0 0 -1
vn 0 -1 0
vn 0 1 0

# texcoords
vt 0.0332031 0.5
vt 0.0917969 0.5
vt 0.845703 0.5
vt 0.958984 0.5
vt 0.994141 0.5

# verts
v -9.5 20 10.5
v -9.5 20 7.5
v -9.5 23 10.5
v -9.5 23 7.5
v -9.5 26 10.5
v -9.5 26 7.5
v -8.5 10 15.5
v -8.5 10 12.5
v -8.5 10 6.5
v -8.5 12 13.5
v -8.5 12 12.5
v -8.5 13 15.5
v -8.5 13 13.5
v -8.5 20 10.5
v -8.5 20 7.5
v -8.5 22 15.5
v -8.5 22 10.5
v -8.5 22 7.5
v -8.5 22 6.5
v -8.5 26 10.5
v -8.5 26 7.5
v -8.5 27 10.5
v -8.5 27 7.5
v -7.5 6 11.5
v -7.5 6 -8.5
v -7.5 9 15.5
v -7.5 9 12.5
v -7.5 9 11.5
v -7.5 10 15.5
v -7.5 10 12.5
v -7.5 10 6.5
v -7.5 16 6.5
v -7.5 16 -8.5
v -7.5 27 10.5
v -7.5 27 9.5
v -7.5 28 10.5
v -7.5 28 9.5
v -6.5 0 12.5
v -6.5 0 8.5
v -6.5 0 -2.5
v -6.5 0 -6.5
v -6.5 2 12.5
v -6.5 2 10.5
v -6.5 2 -2.5
v -6.5 2 -4.5
v -6.5 3 10.5
v -6.5 3 8.5
v -6.5 3 -4.5
v -6.5 3 -6.5
v -6.5 6 10.5
v -6.5 6 8.5
v -6.5 6 -4.5
v -6.5 6 -6.5
v -6.5 23 10.5
v -6.5 23 9.5
v -6.5 24 10.5
v -6.5 24 9.5
v -2.5 12 19.5
v -2.5 12 15.5
v -2.5 13 19.5
v -2.5 13 15.5
v -2.5 15 19.5
v -2.5 15 15.5
v -1.5 10 -11.5
v -1.5 10 -14.5
v -1.5 11 -8.5
v -1.5 11 -11.5
v -1.5 11 -14.5
v -1.5 11 -15.5
v -1.5 12 -8.5
v -1.5 12 -14.5
v -1.5 12 -15.5
v -1.5 12 -18.5
v -1.5 13 20.5
v -1.5 13 19.5
v -1.5 13 -11.5
v -1.5 13 -14.5
v -1.5 13 -18.5
v -1.5 14 -8.5
v -1.5 14 -11.5
v -1.5 14 -14.5
v -1.5 14 -18.5
v -1.5 15 20.5
v -1.5 15 19.5
v 3.5 0 12.5
v 3.5 0 8.5
v 3.5 0 -2.5
v 3.5 0 -6.5
v 3.5 2 12.5
v 3.5 2 10.5
v 3.5 2 -2.5
v 3.5 2 -4.5
v 3.5 3 10.5
v 3.5 3 8.5
v 3.5 3 -4.5
v 3.5 3 -6.5
v 3.5 6 10.5
v 3.5 6 8.5
v 3.5 6 -4.5
v 3.5 6 -6.5
v 4.5 22 10.5
v 4.5 22 7.5
v 4.5 23 10.5
v 4.5 23 7.5
v 4.5 26 10.5
v 4.5 26 7.5
v 5.5 26 10.5
v 5.5 26 7.5
v 5.5 27 10.5
v 5.5 27 7.5
v 6.5 27 10.5
v 6.5 27 9.5
v 6.5 28 10.5
v 6.5 28 9.5
v 7.5 23 10.5
v 7.5 23 9.5
v 7.5 24 10.5
v 7.5 24 9.5
v -7.5 23 10.5
v -7.5 23 9.5
v -7.5 24 10.5
v -7.5 24 9.5
v -6.5 27 10.5
v -6.5 27 9.5
v -6.5 28 10.5
v -6.5 28 9.5
v -5.5 26 10.5
v -5.5 26 7.5
v -5.5 27 10.5
v -5.5 27 7.5
v -4.5 22 10.5
v -4.5 22 7.5
v -4.5 23 10.5
v -4.5 23 7.5
v -4.5 26 10.5
v -4.5 26 7.5
v -3.5 0 12.5
v -3.5 0 8.5
v -3.5 0 -2.5
v -3.5 0 -6.5
v -3.5 2 12.5
v -3.5 2 10.5
v -3.5 2 -2.5
v -3.5 2 -4.5
v -3.5 3 10.5
v -3.5 3 8.5
v -3.5 3 -4.5
v -3.5 3 -6.5
v -3.5 6 10.5
v -3.5 6 8.5
v -3.5 6 -4.5
v -3.5 6 -6.5
v 1.5 10 -11.5
v 1.5 10 -14.5
v 1.5 11 -8.5
v 1.5 11 -11.5
v 1.5 11 -14.5
v 1.5 11 -15.5
v 1.5 12 -8.5
v 1.5 12 -14.5
v 1.5 12 -15.5
v 1.5 12 -18.5
v 1.5 13 20.5
v 1.5 13 19.5
v 1.5 13 -11.5
v 1.5 13 -14.5
v 1.5 13 -18.5
v 1.5 14 -8.5
v 1.5 14 -11.5
v 1.5 14 -14.5
v 1.5 14 -18.5
v 1.5 15 20.5
v 1.5 15 19.5
v 2.5 12 19.5
v 2.5 12 15.5
v 2.5 13 19.5
v 2.5 13 15.5
v 2.5 15 19.5
v 2.5 15 15.5
v 6.5 0 12.5
v 6.5 0 8.5
v 6.5 0 -2.5
v 6.5 0 -6.5
v 6.5 2 12.5
v 6.5 2 10.5
v 6.5 2 -2.5
v 6.5 2 -4.5
v 6.5 3 10.5
v 6.5 3 8.5
v 6.5 3 -4.5
v 6.5 3 -6.5
v 6.5 6 10.5
v 6.5 6 8.5
v 6.5 6 -4.5
v 6.5 6 -6.5
v 6.5 23 10.5
v 6.5 23 9.5
v 6.5 24 10.5
v 6.5 24 9.5
v 7.5 6 11.5
v 7.5 6 -8.5
v 7.5 9 15.5
v 7.5 9 12.5
v 7.5 9 11.5
v 7.5 10 15.5
v 7.5 10 12.5
v 7.5 10 6.5
v 7.5 16 6.5
v 7.5 16 -8.5
v 7.5 27 10.5
v 7.5 27 9.5
v 7.5 28 10.5
v 7.5 28 9.5
v 8.5 10 15.5
v 8.5 10 12.5
v 8.5 10 6.5
v 8.5 12 13.5
v 8.5 12 12.5
v 8.5 13 15.5
v 8.5 13 13.5
v 8.5 20 10.5
v 8.5 20 7.5
v 8.5 22 15.5
v 8.5 22 10.5
v 8.5 22 7.5
v 8.5 22 6.5
v 8.5 26 10.5
v 8.5 26 7.5
v 8.5 27 10.5
v 8.5 27 7.5
v 9.5 20 10.5
v 9.5 20 7.5
v 9.5 23 10.5
v 9.5 23 7.5
v 9.5 26 10.5
v 9.5 26 7.5
v -1.5 13 20.5
v -1.5 15 20.5
v 1.5 13 20.5
v 1.5 15 20.5
v -2.5 12 19.5
v -2.5 13 19.5
v -2.5 15 19.5
v -1.5 13 19.5
v -1.5 15 19.5
v 1.5 13 19.5
v 1.5 15 19.5
v 2.5 12 19.5
v 2.5 13 19.5
v 2.5 15 19.5
v -8.5 10 15.5
v -8.5 13 15.5
v -8.5 22 15.5
v -7.5 9 15.5
v -7.5 10 15.5
v -5.5 19 15.5
v -5.5 20 15.5
v -4.5 15 15.5
v -4.5 19 15.5
v -4.5 20 15.5
v -3.5 15 15.5
v -3.5 17 15.5
v -3.5 18 15.5
v -3.5 19 15.5
v -2.5 12 15.5
v -2.5 13 15.5
v -2.5 15 15.5
v -2.5 17 15.5
v -2.5 18 15.5
v -1.5 15 15.5
v -1.5 17 15.5
v 1.5 15 15.5
v 1.5 17 15.5
v 2.5 12 15.5
v 2.5 13 15.5
v 2.5 15 15.5
v 2.5 17 15.5
v 2.5 18 15.5
v 3.5 15 15.5
v 3.5 17 15.5
v 3.5 18 15.5
v 3.5 19 15.5
v 4.5 15 15.5
v 4.5 19 15.5
v 4.5 20 15.5
v 5.5 19 15.5
v 5.5 20 15.5
v 7.5 9 15.5
v 7.5 10 15.5
v 8.5 10 15.5
v 8.5 13 15.5
v 8.5 22 15.5
v -6.5 0 12.5
v -6.5 2 12.5
v -3.5 0 12.5
v -3.5 2 12.5
v 3.5 0 12.5
v 3.5 2 12.5
v 6.5 0 12.5
v 6.5 2 12.5
v -7.5 6 11.5
v -7.5 9 11.5
v -3.5 6 11.5
v -3.5 9 11.5
v 3.5 6 11.5
v 3.5 9 11.5
v 7.5 6 11.5
v 7.5 9 11.5
v -9.5 20 10.5
v -9.5 23 10.5
v -9.5 26 10.5
v -8.5 20 10.5
v -8.5 22 10.5
v -8.5 26 10.5
v -8.5 27 10.5
v -7.5 23 10.5
v -7.5 24 10.5
v -7.5 27 10.5
v -7.5 28 10.5
v -6.5 2 10.5
v -6.5 3 10.5
v -6.5 6 10.5
v -6.5 23 10.5
v -6.5 24 10.5
v -6.5 27 10.5
v -6.5 28 10.5
v -5.5 26 10.5
v -5.5 27 10.5
v -4.5 22 10.5
v -4.5 23 10.5
v -4.5 26 10.5
v -3.5 2 10.5
v -3.5 3 10.5
v -3.5 6 10.5
v 3.5 2 10.5
v 3.5 3 10.5
v 3.5 6 10.5
v 4.5 22 10.5
v 4.5 23 10.5
v 4.5 26 10.5
v 5.5 26 10.5
v 5.5 27 10.5
v 6.5 2 10.5
v 6.5 3 10.5
v 6.5 6 10.5
v 6.5 23 10.5
v 6.5 24 10.5
v 6.5 27 10.5
v 6.5 28 10.5
v 7.5 23 10.5
v 7.5 24 10.5
v 7.5 27 10.5
v 7.5 28 10.5
v 8.5 20 10.5
v 8.5 22 10.5
v 8.5 26 10.5
v 8.5 27 10.5
v 9.5 20 10.5
v 9.5 23 10.5
v 9.5 26 10.5
v -7.5 23 9.5
v -7.5 24 9.5
v -6.5 23 9.5
v -6.5 24 9.5
v 6.5 23 9.5
v 6.5 24 9.5
v 7.5 23 9.5
v 7.5 24 9.5
v -6.5 0 -2.5
v -6.5 2 -2.5
v -3.5 0 -2.5
v -3.5 2 -2.5
v 3.5 0 -2.5
v 3.5 2 -2.5
v 6.5 0 -2.5
v 6.5 2 -2.5
v -6.5 2 -4.5
v -6.5 3 -4.5
v -6.5 6 -4.5
v -3.5 2 -4.5
v -3.5 3 -4.5
v -3.5 6 -4.5
v 3.5 2 -4.5
v 3.5 3 -4.5
v 3.5 6 -4.5
v 6.5 2 -4.5
v 6.5 3 -4.5
v 6.5 6 -4.5
v -1.5 10 -11.5
v -1.5 11 -11.5
v 1.5 10 -11.5
v 1.5 11 -11.5
v -1.5 13 -14.5
v -1.5 14 -14.5
v 1.5 13 -14.5
v 1.5 14 -14.5
v -7.5 27 9.5
v -7.5 28 9.5
v -6.5 27 9.5
v -6.5 28 9.5
v 6.5 27 9.5
v 6.5 28 9.5
v 7.5 27 9.5
v 7.5 28 9.5
v -6.5 0 8.5
v -6.5 3 8.5
v -6.5 6 8.5
v -3.5 0 8.5
v -3.5 3 8.5
v -3.5 6 8.5
v 3.5 0 8.5
v 3.5 3 8.5
v 3.5 6 8.5
v 6.5 0 8.5
v 6.5 3 8.5
v 6.5 6 8.5
v -9.5 20 7.5
v -9.5 23 7.5
v -9.5 26 7.5
v -8.5 20 7.5
v -8.5 22 7.5
v -8.5 26 7.5
v -8.5 27 7.5
v -5.5 26 7.5
v -5.5 27 7.5
v -4.5 22 7.5
v -4.5 23 7.5
v -4.5 26 7.5
v 4.5 22 7.5
v 4.5 23 7.5
v 4.5 26 7.5
v 5.5 26 7.5
v 5.5 27 7.5
v 8.5 20 7.5
v 8.5 22 7.5
v 8.5 26 7.5
v 8.5 27 7.5
v 9.5 20 7.5
v 9.5 23 7.5
v 9.5 26 7.5
v -8.5 10 6.5
v -8.5 22 6.5
v -7.5 10 6.5
v -7.5 16 6.5
v 7.5 10 6.5
v 7.5 16 6.5
v 8.5 10 6.5
v 8.5 22 6.5
v -6.5 0 -6.5
v -6.5 3 -6.5
v -6.5 6 -6.5
v -3.5 0 -6.5
v -3.5 3 -6.5
v -3.5 6 -6.5
v 3.5 0 -6.5
v 3.5 3 -6.5
v 3.5 6 -6.5
v 6.5 0 -6.5
v 6.5 3 -6.5
v 6.5 6 -6.5
v -7.5 6 -8.5
v -7.5 16 -8.5
v -3.5 6 -8.5
v -3.5 12 -8.5
v -1.5 11 -8.5
v -1.5 12 -8.5
v -1.5 14 -8.5
v 1.5 11 -8.5
v 1.5 12 -8.5
v 1.5 14 -8.5
v 3.5 6 -8.5
v 3.5 12 -8.5
v 7.5 6 -8.5
v 7.5 16 -8.5
v -1.5 13 -11.5
v -1.5 14 -11.5
v 1.5 13 -11.5
v 1.5 14 -11.5
v -1.5 10 -14.5
v -1.5 11 -14.5
v 1.5 10 -14.5
v 1.5 11 -14.5
v -1.5 11 -15.5
v -1.5 12 -15.5
v 1.5 11 -15.5
v 1.5 12 -15.5
v -1.5 12 -18.5
v -1.5 13 -18.5
v -1.5 14 -18.5
v 1.5 12 -18.5
v 1.5 13 -18.5
v 1.5 14 -18.5
v -6.5 0 12.5
v -3.5 0 12.5
v 3.5 0 12.5
v 6.5 0 12.5
v -6.5 0 8.5
v -3.5 0 8.5
v 3.5 0 8.5
v 6.5 0 8.5
v -6.5 0 -2.5
v -3.5 0 -2.5
v 3.5 0 -2.5
v 6.5 0 -2.5
v -6.5 0 -6.5
v -3.5 0 -6.5
v 3.5 0 -6.5
v 6.5 0 -6.5
v -7.5 6 11.5
v -3.5 6 11.5
v 3.5 6 11.5
v 7.5 6 11.5
v -6.5 6 10.5
v -3.5 6 10.5
v 3.5 6 10.5
v 6.5 6 10.5
v -6.5 6 8.5
v -3.5 6 8.5
v 3.5 6 8.5
v 6.5 6 8.5
v -6.5 6 -4.5
v -3.5 6 -4.5
v 3.5 6 -4.5
v 6.5 6 -4.5
v -6.5 6 -6.5
v -3.5 6 -6.5
v 3.5 6 -6.5
v 6.5 6 -6.5
v -7.5 6 -8.5
v -3.5 6 -8.5
v 3.5 6 -8.5
v 7.5 6 -8.5
v -7.5 9 15.5
v 7.5 9 15.5
v -7.5 9 12.5
v -3.5 9 12.5
v 3.5 9 12.5
v 7.5 9 12.5
v -7.5 9 11.5
v -3.5 9 11.5
v 3.5 9 11.5
v 7.5 9 11.5
v -8.5 10 15.5
v -7.5 10 15.5
v 7.5 10 15.5
v 8.5 10 15.5
v -8.5 10 12.5
v -7.5 10 12.5
v 7.5 10 12.5
v 8.5 10 12.5
v -8.5 10 6.5
v -7.5 10 6.5
v 7.5 10 6.5
v 8.5 10 6.5
v -1.5 10 -11.5
v 1.5 10 -11.5
v -1.5 10 -14.5
v 1.5 10 -14.5
v -1.5 11 -8.5
v 1.5 11 -8.5
v -1.5 11 -11.5
v 1.5 11 -11.5
v -1.5 11 -14.5
v 1.5 11 -14.5
v -1.5 11 -15.5
v 1.5 11 -15.5
v -2.5 12 19.5
v 2.5 12 19.5
v -2.5 12 15.5
v 2.5 12 15.5
v -1.5 12 -15.5
v 1.5 12 -15.5
v -1.5 12 -18.5
v 1.5 12 -18.5
v -1.5 13 20.5
v 1.5 13 20.5
v -1.5 13 19.5
v 1.5 13 19.5
v -9.5 20 10.5
v -8.5 20 10.5
v 8.5 20 10.5
v 9.5 20 10.5
v -9.5 20 7.5
v -8.5 20 7.5
v 8.5 20 7.5
v 9.5 20 7.5
v -7.5 24 10.5
v -6.5 24 10.5
v 6.5 24 10.5
v 7.5 24 10.5
v -7.5 24 9.5
v -6.5 24 9.5
v 6.5 24 9.5
v 7.5 24 9.5
v -6.5 2 12.5
v -3.5 2 12.5
v 3.5 2 12.5
v 6.5 2 12.5
v -6.5 2 10.5
v -3.5 2 10.5
v 3.5 2 10.5
v 6.5 2 10.5
v -6.5 2 -2.5
v -3.5 2 -2.5
v 3.5 2 -2.5
v 6.5 2 -2.5
v -6.5 2 -4.5
v -3.5 2 -4.5
v 3.5 2 -4.5
v 6.5 2 -4.5
v -1.5 13 -11.5
v 1.5 13 -11.5
v -1.5 13 -14.5
v 1.5 13 -14.5
v -1.5 14 -8.5
v 1.5 14 -8.5
v -1.5 14 -11.5
v 1.5 14 -11.5
v -1.5 14 -14.5
v 1.5 14 -14.5
v -1.5 14 -18.5
v 1.5 14 -18.5
v -1.5 15 20.5
v 1.5 15 20.5
v -2.5 15 19.5
v -1.5 15 19.5
v 1.5 15 19.5
v 2.5 15 19.5
v -2.5 15 15.5
v -1.5 15 15.5
v 1.5 15 15.5
v 2.5 15 15.5
v -7.5 16 6.5
v 7.5 16 6.5
v -7.5 16 -8.5
v 7.5 16 -8.5
v -8.5 22 15.5
v 8.5 22 15.5
v -8.5 22 10.5
v -4.5 22 10.5
v 4.5 22 10.5
v 8.5 22 10.5
v -8.5 22 7.5
v -4.5 22 7.5
v 4.5 22 7.5
v 8.5 22 7.5
v -8.5 22 6.5
v 8.5 22 6.5
v -7.5 23 10.5
v -6.5 23 10.5
v 6.5 23 10.5
v 7.5 23 10.5
v -7.5 23 9.5
v -6.5 23 9.5
v 6.5 23 9.5
v 7.5 23 9.5
v -9.5 26 10.5
v -8.5 26 10.5
v -5.5 26 10.5
v -4.5 26 10.5
v 4.5 26 10.5
v 5.5 26 10.5
v 8.5 26 10.5
v 9.5 26 10.5
v -9.5 26 7.5
v -8.5 26 7.5
v -5.5 26 7.5
v -4.5 26 7.5
v 4.5 26 7.5
v 5.5 26 7.5
v 8.5 26 7.5
v 9.5 26 7.5
v -8.5 27 10.5
v -7.5 27 10.5
v -6.5 27 10.5
v -5.5 27 10.5
v 5.5 27 10.5
v 6.5 27 10.5
v 7.5 27 10.5
v 8.5 27 10.5
v -7.5 27 9.5
v -6.5 27 9.5
v 6.5 27 9.5
v 7.5 27 9.5
v -8.5 27 7.5
v -5.5 27 7.5
v 5.5 27 7.5
v 8.5 27 7.5
v -7.5 28 10.5
v -6.5 28 10.5
v 6.5 28 10.5
v 7.5 28 10.5
v -7.5 28 9.5
v -6.5 28 9.5
v 6.5 28 9.5
v 7.5 28 9.5

# faces
f 3/2/1 2/2/1 1/2/1
f 4/2/1 2/2/1 3/2/1
f 5/5/1 4/5/1 3/5/1
f 6/5/1 4/5/1 5/5/1
f 10/1/1 8/1/1 7/1/1
f 11/2/1 9/2/1 8/2/1
f 11/1/1 8/1/1 10/1/1
f 12/1/1 10/1/1 7/1/1
f 13/2/1 11/2/1 10/2/1
f 13/1/1 10/1/1 12/1/1
f 14/2/1 9/2/1 11/2/1
f 14/2/1 11/2/1 13/2/1
f 14/2/1 13/2/1 12/2/1
f 15/2/1 9/2/1 14/2/1
f 16/2/1 14/2/1 12/2/1
f 17/2/1 14/2/1 16/2/1
f 18/2/1 9/2/1 15/2/1
f 19/2/1 9/2/1 18/2/1
f 22/5/1 21/5/1 20/5/1
f 23/5/1 21/5/1 22/5/1
f 28/2/1 25/2/1 24/2/1
f 29/1/1 27/1/1 26/1/1
f 30/2/1 28/2/1 27/2/1
f 30/1/1 27/1/1 29/1/1
f 31/2/1 25/2/1 28/2/1
f 31/2/1 28/2/1 30/2/1
f 32/2/1 25/2/1 31/2/1
f 33/2/1 25/2/1 32/2/1
f 36/5/1 35/5/1 34/5/1
f 37/5/1 35/5/1 36/5/1
f 42/5/1 39/5/1 38/5/1
f 43/5/1 39/5/1 42/5/1
f 44/5/1 41/5/1 40/5/1
f 45/5/1 41/5/1 44/5/1
f 46/5/1 39/5/1 43/5/1
f 47/5/1 39/5/1 46/5/1
f 48/5/1 41/5/1 45/5/1
f 49/5/1 41/5/1 48/5/1
f 50/2/1 47/2/1 46/2/1
f 51/2/1 47/2/1 50/2/1
f 52/2/1 49/2/1 48/2/1
f 53/2/1 49/2/1 52/2/1
f 56/5/1 55/5/1 54/5/1
f 57/5/1 55/5/1 56/5/1
f 60/1/1 59/1/1 58/1/1
f 61/1/1 59/1/1 60/1/1
f 62/2/1 61/2/1 60/2/1
f 63/2/1 61/2/1 62/2/1
f 67/1/1 65/1/1 64/1/1
f 68/1/1 65/1/1 67/1/1
f 70/1/1 67/1/1 66/1/1
f 70/1/1 69/1/1 68/1/1
f 70/1/1 68/1/1 67/1/1
f 71/1/1 69/1/1 70/1/1
f 72/1/1 69/1/1 71/1/1
f 76/2/1 71/2/1 70/2/1
f 77/1/1 72/1/1 71/1/1
f 77/2/1 71/2/1 76/2/1
f 77/1/1 73/1/1 72/1/1
f 78/1/1 73/1/1 77/1/1
f 79/2/1 76/2/1 70/2/1
f 80/2/1 76/2/1 79/2/1
f 81/2/1 78/2/1 77/2/1
f 82/2/1 78/2/1 81/2/1
f 83/5/1 75/5/1 74/5/1
f 84/5/1 75/5/1 83/5/1
f 89/5/1 86/5/1 85/5/1
f 90/5/1 86/5/1 89/5/1
f 91/5/1 88/5/1 87/5/1
f 92/5/1 88/5/1 91/5/1
f 93/5/1 86/5/1 90/5/1
f 94/5/1 86/5/1 93/5/1
f 95/5/1 88/5/1 92/5/1
f 96/5/1 88/5/1 95/5/1
f 97/2/1 94/2/1 93/2/1
f 98/2/1 94/2/1 97/2/1
f 99/2/1 96/2/1 95/2/1
f 100/2/1 96/2/1 99/2/1
f 103/2/1 102/2/1 101/2/1
f 104/2/1 102/2/1 103/2/1
f 105/5/1 104/5/1 103/5/1
f 106/5/1 104/5/1 105/5/1
f 109/5/1 108/5/1 107/5/1
f 110/5/1 108/5/1 109/5/1
f 113/5/1 112/5/1 111/5/1
f 114/5/1 112/5/1 113/5/1
f 117/5/1 116/5/1 115/5/1
f 118/5/1 116/5/1 117/5/1
f 119/5/2 120/5/2 121/5/2
f 121/5/2 120/5/2 122/5/2
f 123/5/2 124/5/2 125/5/2
f 125/5/2 124/5/2 126/5/2
f 127/5/2 128/5/2 129/5/2
f 129/5/2 128/5/2 130/5/2
f 131/2/2 132/2/2 133/2/2
f 133/2/2 132/2/2 134/2/2
f 133/5/2 134/5/2 135/5/2
f 135/5/2 134/5/2 136/5/2
f 137/5/2 138/5/2 141/5/2
f 141/5/2 138/5/2 142/5/2
f 139/5/2 140/5/2 143/5/2
f 143/5/2 140/5/2 144/5/2
f 142/5/2 138/5/2 145/5/2
f 145/5/2 138/5/2 146/5/2
f 144/5/2 140/5/2 147/5/2
f 147/5/2 140/5/2 148/5/2
f 145/2/2 146/2/2 149/2/2
f 149/2/2 146/2/2 150/2/2
f 147/2/2 148/2/2 151/2/2
f 151/2/2 148/2/2 152/2/2
f 153/1/2 154/1/2 156/1/2
f 156/1/2 154/1/2 157/1/2
f 155/1/2 156/1/2 159/1/2
f 157/1/2 158/1/2 159/1/2
f 156/1/2 157/1/2 159/1/2
f 159/1/2 158/1/2 160/1/2
f 160/1/2 158/1/2 161/1/2
f 159/2/2 160/2/2 165/2/2
f 160/1/2 161/1/2 166/1/2
f 165/2/2 160/2/2 166/2/2
f 161/1/2 162/1/2 166/1/2
f 166/1/2 162/1/2 167/1/2
f 159/2/2 165/2/2 168/2/2
f 168/2/2 165/2/2 169/2/2
f 166/2/2 167/2/2 170/2/2
f 170/2/2 167/2/2 171/2/2
f 163/5/2 164/5/2 172/5/2
f 172/5/2 164/5/2 173/5/2
f 174/1/2 175/1/2 176/1/2
f 176/1/2 175/1/2 177/1/2
f 176/2/2 177/2/2 178/2/2
f 178/2/2 177/2/2 179/2/2
f 180/5/2 181/5/2 184/5/2
f 184/5/2 181/5/2 185/5/2
f 182/5/2 183/5/2 186/5/2
f 186/5/2 183/5/2 187/5/2
f 185/5/2 181/5/2 188/5/2
f 188/5/2 181/5/2 189/5/2
f 187/5/2 183/5/2 190/5/2
f 190/5/2 183/5/2 191/5/2
f 188/2/2 189/2/2 192/2/2
f 192/2/2 189/2/2 193/2/2
f 190/2/2 191/2/2 194/2/2
f 194/2/2 191/2/2 195/2/2
f 196/5/2 197/5/2 198/5/2
f 198/5/2 197/5/2 199/5/2
f 200/2/2 201/2/2 204/2/2
f 202/1/2 203/1/2 205/1/2
f 203/2/2 204/2/2 206/2/2
f 205/1/2 203/1/2 206/1/2
f 204/2/2 201/2/2 207/2/2
f 206/2/2 204/2/2 207/2/2
f 207/2/2 201/2/2 208/2/2
f 208/2/2 201/2/2 209/2/2
f 210/5/2 211/5/2 212/5/2
f 212/5/2 211/5/2 213/5/2
f 214/1/2 215/1/2 217/1/2
f 215/2/2 216/2/2 218/2/2
f 217/1/2 215/1/2 218/1/2
f 214/1/2 217/1/2 219/1/2
f 217/2/2 218/2/2 220/2/2
f 219/1/2 217/1/2 220/1/2
f 218/2/2 216/2/2 221/2/2
f 220/2/2 218/2/2 221/2/2
f 219/2/2 220/2/2 221/2/2
f 221/2/2 216/2/2 222/2/2
f 219/2/2 221/2/2 223/2/2
f 223/2/2 221/2/2 224/2/2
f 222/2/2 216/2/2 225/2/2
f 225/2/2 216/2/2 226/2/2
f 227/5/2 228/5/2 229/5/2
f 229/5/2 228/5/2 230/5/2
f 231/2/2 232/2/2 233/2/2
f 233/2/2 232/2/2 234/2/2
f 233/5/2 234/5/2 235/5/2
f 235/5/2 234/5/2 236/5/2
f 239/5/3 238/5/3 237/5/3
f 240/5/3 238/5/3 239/5/3
f 244/1/3 242/1/3 241/1/3
f 244/2/3 243/2/3 242/2/3
f 245/2/3 243/2/3 244/2/3
f 246/1/3 244/1/3 241/1/3
f 248/1/3 246/1/3 241/1/3
f 249/2/3 247/2/3 246/2/3
f 249/1/3 246/1/3 248/1/3
f 250/2/3 247/2/3 249/2/3
f 255/1/3 252/1/3 251/1/3
f 256/2/3 253/2/3 252/2/3
f 257/2/3 253/2/3 256/2/3
f 258/2/3 256/2/3 252/2/3
f 259/4/3 257/4/3 256/4/3
f 259/2/3 256/2/3 258/2/3
f 260/2/3 253/2/3 257/2/3
f 260/4/3 257/4/3 259/4/3
f 261/4/3 259/4/3 258/4/3
f 261/2/3 258/2/3 252/2/3
f 262/4/3 259/4/3 261/4/3
f 263/4/3 259/4/3 262/4/3
f 264/2/3 260/2/3 259/2/3
f 264/4/3 259/4/3 263/4/3
f 265/1/3 255/1/3 254/1/3
f 265/1/3 252/1/3 255/1/3
f 266/2/3 261/2/3 252/2/3
f 266/1/3 252/1/3 265/1/3
f 267/3/3 262/3/3 261/3/3
f 267/2/3 261/2/3 266/2/3
f 268/4/3 263/4/3 262/4/3
f 268/3/3 262/3/3 267/3/3
f 269/2/3 264/2/3 263/2/3
f 269/4/3 263/4/3 268/4/3
f 270/4/3 268/4/3 267/4/3
f 271/2/3 269/2/3 268/2/3
f 271/4/3 268/4/3 270/4/3
f 272/2/3 271/2/3 270/2/3
f 273/2/3 269/2/3 271/2/3
f 273/2/3 271/2/3 272/2/3
f 274/1/3 265/1/3 254/1/3
f 276/4/3 273/4/3 272/4/3
f 277/2/3 269/2/3 273/2/3
f 277/4/3 273/4/3 276/4/3
f 278/2/3 264/2/3 269/2/3
f 278/2/3 269/2/3 277/2/3
f 279/3/3 277/3/3 276/3/3
f 279/2/3 276/2/3 275/2/3
f 280/4/3 278/4/3 277/4/3
f 280/3/3 277/3/3 279/3/3
f 281/2/3 264/2/3 278/2/3
f 281/4/3 278/4/3 280/4/3
f 282/2/3 260/2/3 264/2/3
f 282/2/3 264/2/3 281/2/3
f 283/4/3 281/4/3 280/4/3
f 283/4/3 280/4/3 279/4/3
f 283/4/3 282/4/3 281/4/3
f 283/2/3 279/2/3 275/2/3
f 284/2/3 260/2/3 282/2/3
f 284/4/3 282/4/3 283/4/3
f 285/2/3 253/2/3 260/2/3
f 285/2/3 260/2/3 284/2/3
f 286/2/3 284/2/3 283/2/3
f 286/4/3 285/4/3 284/4/3
f 287/2/3 253/2/3 285/2/3
f 287/4/3 285/4/3 286/4/3
f 288/1/3 274/1/3 254/1/3
f 288/1/3 275/1/3 274/1/3
f 289/1/3 275/1/3 288/1/3
f 290/1/3 275/1/3 289/1/3
f 291/2/3 283/2/3 275/2/3
f 291/1/3 275/1/3 290/1/3
f 291/2/3 286/2/3 283/2/3
f 291/2/3 287/2/3 286/2/3
f 292/2/3 253/2/3 287/2/3
f 292/2/3 287/2/3 291/2/3
f 295/5/3 294/5/3 293/5/3
f 296/5/3 294/5/3 295/5/3
f 299/5/3 298/5/3 297/5/3
f 300/5/3 298/5/3 299/5/3
f 303/2/3 302/2/3 301/2/3
f 304/2/3 302/2/3 303/2/3
f 305/1/3 304/1/3 303/1/3
f 306/1/3 304/1/3 305/1/3
f 307/2/3 306/2/3 305/2/3
f 308/2/3 306/2/3 307/2/3
f 312/2/3 310/2/3 309/2/3
f 313/2/3 310/2/3 312/2/3
f 314/5/3 311/5/3 310/5/3
f 316/2/3 310/2/3 313/2/3
f 316/5/3 315/5/3 314/5/3
f 316/5/3 314/5/3 310/5/3
f 317/5/3 315/5/3 316/5/3
f 318/5/3 315/5/3 317/5/3
f 323/2/3 316/2/3 313/2/3
f 324/5/3 319/5/3 318/5/3
f 324/5/3 318/5/3 317/5/3
f 325/5/3 319/5/3 324/5/3
f 326/5/3 319/5/3 325/5/3
f 327/5/3 324/5/3 323/5/3
f 327/5/3 325/5/3 324/5/3
f 328/5/3 325/5/3 327/5/3
f 329/2/3 323/2/3 313/2/3
f 330/5/3 327/5/3 323/5/3
f 330/2/3 323/2/3 329/2/3
f 331/5/3 327/5/3 330/5/3
f 332/5/3 321/5/3 320/5/3
f 333/2/3 322/2/3 321/2/3
f 333/5/3 321/5/3 332/5/3
f 334/2/3 322/2/3 333/2/3
f 341/5/3 340/5/3 339/5/3
f 343/5/3 336/5/3 335/5/3
f 344/2/3 337/2/3 336/2/3
f 344/5/3 336/5/3 343/5/3
f 345/2/3 337/2/3 344/2/3
f 346/5/3 341/5/3 339/5/3
f 346/5/3 342/5/3 341/5/3
f 346/2/3 339/2/3 338/2/3
f 347/5/3 342/5/3 346/5/3
f 348/5/3 342/5/3 347/5/3
f 350/2/3 346/2/3 338/2/3
f 351/5/3 348/5/3 347/5/3
f 351/5/3 349/5/3 348/5/3
f 352/5/3 349/5/3 351/5/3
f 353/5/3 349/5/3 352/5/3
f 355/2/3 350/2/3 338/2/3
f 356/5/3 351/5/3 350/5/3
f 356/5/3 352/5/3 351/5/3
f 357/5/3 352/5/3 356/5/3
f 358/2/3 355/2/3 354/2/3
f 359/2/3 350/2/3 355/2/3
f 359/2/3 355/2/3 358/2/3
f 359/5/3 356/5/3 350/5/3
f 360/5/3 356/5/3 359/5/3
f 363/2/3 362/2/3 361/2/3
f 364/2/3 362/2/3 363/2/3
f 367/2/3 366/2/3 365/2/3
f 368/2/3 366/2/3 367/2/3
f 371/5/3 370/5/3 369/5/3
f 372/5/3 370/5/3 371/5/3
f 375/5/3 374/5/3 373/5/3
f 376/5/3 374/5/3 375/5/3
f 380/5/3 378/5/3 377/5/3
f 381/2/3 379/2/3 378/2/3
f 381/5/3 378/5/3 380/5/3
f 382/2/3 379/2/3 381/2/3
f 386/5/3 384/5/3 383/5/3
f 387/2/3 385/2/3 384/2/3
f 387/5/3 384/5/3 386/5/3
f 388/2/3 385/2/3 387/2/3
f 391/1/3 390/1/3 389/1/3
f 392/1/3 390/1/3 391/1/3
f 395/2/3 394/2/3 393/2/3
f 396/2/3 394/2/3 395/2/3
f 397/5/4 398/5/4 399/5/4
f 399/5/4 398/5/4 400/5/4
f 401/5/4 402/5/4 403/5/4
f 403/5/4 402/5/4 404/5/4
f 405/5/4 406/5/4 408/5/4
f 406/2/4 407/2/4 409/2/4
f 408/5/4 406/5/4 409/5/4
f 409/2/4 407/2/4 410/2/4
f 411/5/4 412/5/4 414/5/4
f 412/2/4 413/2/4 415/2/4
f 414/5/4 412/5/4 415/5/4
f 415/2/4 413/2/4 416/2/4
f 417/2/4 418/2/4 420/2/4
f 420/2/4 418/2/4 421/2/4
f 418/5/4 419/5/4 422/5/4
f 422/5/4 423/5/4 424/5/4
f 418/5/4 422/5/4 424/5/4
f 424/5/4 423/5/4 425/5/4
f 421/2/4 418/2/4 426/2/4
f 418/5/4 424/5/4 427/5/4
f 426/2/4 418/2/4 427/2/4
f 427/5/4 424/5/4 428/5/4
f 430/5/4 431/5/4 432/5/4
f 429/2/4 430/2/4 435/2/4
f 430/5/4 432/5/4 436/5/4
f 432/5/4 433/5/4 436/5/4
f 436/5/4 433/5/4 437/5/4
f 434/2/4 435/2/4 438/2/4
f 435/2/4 430/2/4 439/2/4
f 438/2/4 435/2/4 439/2/4
f 430/5/4 436/5/4 439/5/4
f 439/5/4 436/5/4 440/5/4
f 441/2/4 442/2/4 443/2/4
f 443/2/4 442/2/4 444/2/4
f 444/2/4 442/2/4 446/2/4
f 445/2/4 446/2/4 447/2/4
f 446/2/4 442/2/4 448/2/4
f 447/2/4 446/2/4 448/2/4
f 449/5/4 450/5/4 452/5/4
f 450/2/4 451/2/4 453/2/4
f 452/5/4 450/5/4 453/5/4
f 453/2/4 451/2/4 454/2/4
f 455/5/4 456/5/4 458/5/4
f 456/2/4 457/2/4 459/2/4
f 458/5/4 456/5/4 459/5/4
f 459/2/4 457/2/4 460/2/4
f 461/2/4 462/2/4 463/2/4
f 463/2/4 462/2/4 464/2/4
f 463/1/4 464/1/4 465/1/4
f 464/2/4 462/2/4 466/2/4
f 465/1/4 464/1/4 466/1/4
f 466/2/4 462/2/4 467/2/4
f 463/1/4 465/1/4 468/1/4
f 467/2/4 462/2/4 470/2/4
f 468/1/4 469/1/4 471/1/4
f 463/1/4 468/1/4 471/1/4
f 469/2/4 470/2/4 472/2/4
f 471/1/4 469/1/4 472/1/4
f 471/2/4 472/2/4 473/2/4
f 470/2/4 462/2/4 474/2/4
f 473/2/4 472/2/4 474/2/4
f 472/2/4 470/2/4 474/2/4
f 475/2/4 476/2/4 477/2/4
f 477/2/4 476/2/4 478/2/4
f 479/1/4 480/1/4 481/1/4
f 481/1/4 480/1/4 482/1/4
f 483/1/4 484/1/4 485/1/4
f 485/1/4 484/1/4 486/1/4
f 487/1/4 488/1/4 490/1/4
f 488/2/4 489/2/4 491/2/4
f 490/1/4 488/1/4 491/1/4
f 491/2/4 489/2/4 492/2/4
f 497/5/5 494/5/5 493/5/5
f 498/5/5 494/5/5 497/5/5
f 499/5/5 496/5/5 495/5/5
f 500/5/5 496/5/5 499/5/5
f 505/5/5 502/5/5 501/5/5
f 506/5/5 502/5/5 505/5/5
f 507/5/5 504/5/5 503/5/5
f 508/5/5 504/5/5 507/5/5
f 513/2/5 510/2/5 509/2/5
f 514/1/5 511/1/5 510/1/5
f 514/2/5 510/2/5 513/2/5
f 515/2/5 512/2/5 511/2/5
f 515/1/5 511/1/5 514/1/5
f 516/2/5 512/2/5 515/2/5
f 517/2/5 513/2/5 509/2/5
f 518/1/5 515/1/5 514/1/5
f 519/1/5 515/1/5 518/1/5
f 520/2/5 512/2/5 516/2/5
f 521/2/5 517/2/5 509/2/5
f 521/2/5 518/2/5 517/2/5
f 522/1/5 519/1/5 518/1/5
f 522/2/5 518/2/5 521/2/5
f 523/2/5 520/2/5 519/2/5
f 523/1/5 519/1/5 522/1/5
f 524/2/5 512/2/5 520/2/5
f 524/2/5 520/2/5 523/2/5
f 525/2/5 521/2/5 509/2/5
f 526/1/5 523/1/5 522/1/5
f 527/1/5 523/1/5 526/1/5
f 528/2/5 512/2/5 524/2/5
f 529/2/5 525/2/5 509/2/5
f 529/2/5 526/2/5 525/2/5
f 530/1/5 527/1/5 526/1/5
f 530/2/5 526/2/5 529/2/5
f 531/2/5 528/2/5 527/2/5
f 531/1/5 527/1/5 530/1/5
f 532/2/5 512/2/5 528/2/5
f 532/2/5 528/2/5 531/2/5
f 535/1/5 534/1/5 533/1/5
f 536/1/5 534/1/5 535/1/5
f 537/1/5 534/1/5 536/1/5
f 538/1/5 534/1/5 537/1/5
f 539/2/5 536/2/5 535/2/5
f 540/1/5 537/1/5 536/1/5
f 540/2/5 536/2/5 539/2/5
f 541/2/5 538/2/5 537/2/5
f 541/1/5 537/1/5 540/1/5
f 542/2/5 538/2/5 541/2/5
f 547/1/5 544/1/5 543/1/5
f 548/1/5 544/1/5 547/1/5
f 549/1/5 546/1/5 545/1/5
f 550/1/5 546/1/5 549/1/5
f 551/2/5 548/2/5 547/2/5
f 552/2/5 548/2/5 551/2/5
f 553/2/5 550/2/5 549/2/5
f 554/2/5 550/2/5 553/2/5
f 557/1/5 556/1/5 555/1/5
f 558/1/5 556/1/5 557/1/5
f 561/1/5 560/1/5 559/1/5
f 562/1/5 560/1/5 561/1/5
f 565/1/5 564/1/5 563/1/5
f 566/1/5 564/1/5 565/1/5
f 569/1/5 568/1/5 567/1/5
f 570/1/5 568/1/5 569/1/5
f 573/1/5 572/1/5 571/1/5
f 574/1/5 572/1/5 573/1/5
f 577/5/5 576/5/5 575/5/5
f 578/5/5 576/5/5 577/5/5
f 583/2/5 580/2/5 579/2/5
f 584/2/5 580/2/5 583/2/5
f 585/2/5 582/2/5 581/2/5
f 586/2/5 582/2/5 585/2/5
f 591/5/5 588/5/5 587/5/5
f 592/5/5 588/5/5 591/5/5
f 593/5/5 590/5/5 589/5/5
f 594/5/5 590/5/5 593/5/5
f 595/5/6 596/5/6 599/5/6
f 599/5/6 596/5/6 600/5/6
f 597/5/6 598/5/6 601/5/6
f 601/5/6 598/5/6 602/5/6
f 603/5/6 604/5/6 607/5/6
f 607/5/6 604/5/6 608/5/6
f 605/5/6 606/5/6 609/5/6
f 609/5/6 606/5/6 610/5/6
f 611/2/6 612/2/6 613/2/6
f 613/2/6 612/2/6 614/2/6
f 615/2/6 616/2/6 617/2/6
f 617/2/6 616/2/6 618/2/6
f 619/2/6 620/2/6 621/2/6
f 621/2/6 620/2/6 622/2/6
f 623/5/6 624/5/6 626/5/6
f 626/5/6 624/5/6 627/5/6
f 625/2/6 626/2/6 629/2/6
f 627/2/6 628/2/6 629/2/6
f 626/2/6 627/2/6 629/2/6
f 629/2/6 628/2/6 630/2/6
f 630/2/6 628/2/6 631/2/6
f 631/2/6 628/2/6 632/2/6
f 633/2/6 634/2/6 635/2/6
f 635/2/6 634/2/6 636/2/6
f 637/2/6 638/2/6 639/2/6
f 639/2/6 638/2/6 640/2/6
f 640/2/6 638/2/6 641/2/6
f 641/2/6 638/2/6 642/2/6
f 640/2/6 641/2/6 644/2/6
f 644/2/6 641/2/6 645/2/6
f 643/2/6 644/2/6 647/2/6
f 645/2/6 646/2/6 647/2/6
f 644/2/6 645/2/6 647/2/6
f 647/2/6 646/2/6 648/2/6
f 649/2/6 650/2/6 653/2/6
f 653/2/6 650/2/6 654/2/6
f 651/2/6 652/2/6 655/2/6
f 655/2/6 652/2/6 656/2/6
f 657/5/6 658/5/6 665/5/6
f 665/5/6 658/5/6 666/5/6
f 659/5/6 660/5/6 667/5/6
f 667/5/6 660/5/6 668/5/6
f 661/5/6 662/5/6 669/5/6
f 669/5/6 662/5/6 670/5/6
f 663/5/6 664/5/6 671/5/6
f 671/5/6 664/5/6 672/5/6
f 673/5/6 674/5/6 681/5/6
f 675/5/6 676/5/6 682/5/6
f 677/5/6 678/5/6 683/5/6
f 679/5/6 680/5/6 684/5/6
f 673/5/6 681/5/6 685/5/6
f 681/5/6 682/5/6 685/5/6
f 682/5/6 676/5/6 686/5/6
f 685/5/6 682/5/6 686/5/6
f 677/5/6 683/5/6 687/5/6
f 683/5/6 684/5/6 687/5/6
f 684/5/6 680/5/6 688/5/6
f 687/5/6 684/5/6 688/5/6
f 689/5/6 690/5/6 693/5/6
f 693/5/6 690/5/6 694/5/6
f 691/5/6 692/5/6 695/5/6
f 695/5/6 692/5/6 696/5/6
