# MagicaVoxel @ Ephtracy

# material
mtllib leaf.mtl
usemtl palette

# normals
vn -1 0 0
vn 1 0 0
vn 0 0 1
vn 0 0 -1
vn 0 -1 0
vn 0 1 0

# texcoords
vt 0.626953 0.5
vt 0.630859 0.5
vt 0.654297 0.5

# verts
v -5.5 17 4.5
v -5.5 17 0.5
v -5.5 18 4.5
v -5.5 18 0.5
v -4.5 17 5.5
v -4.5 17 4.5
v -4.5 17 0.5
v -4.5 17 -0.5
v -4.5 18 5.5
v -4.5 18 4.5
v -4.5 18 0.5
v -4.5 18 -0.5
v -3.5 17 6.5
v -3.5 17 5.5
v -3.5 17 -0.5
v -3.5 17 -1.5
v -3.5 18 6.5
v -3.5 18 5.5
v -3.5 18 -0.5
v -3.5 18 -1.5
v -2.5 17 7.5
v -2.5 17 6.5
v -2.5 18 7.5
v -2.5 18 6.5
v -1.5 17 8.5
v -1.5 17 7.5
v -1.5 17 -1.5
v -1.5 17 -5.5
v -1.5 18 8.5
v -1.5 18 7.5
v -1.5 18 -1.5
v -1.5 18 -5.5
v -0.5 17 8.5
v -0.5 17 7.5
v -0.5 17 -1.5
v -0.5 17 -3.5
v -0.5 18 8.5
v -0.5 18 7.5
v -0.5 18 -1.5
v -0.5 18 -3.5
v 0.5 17 7.5
v 0.5 17 6.5
v 0.5 17 -3.5
v 0.5 17 -5.5
v 0.5 18 7.5
v 0.5 18 6.5
v 0.5 18 -3.5
v 0.5 18 -5.5
v 1.5 17 6.5
v 1.5 17 5.5
v 1.5 17 -0.5
v 1.5 17 -1.5
v 1.5 18 6.5
v 1.5 18 5.5
v 1.5 18 -0.5
v 1.5 18 -1.5
v 2.5 17 5.5
v 2.5 17 4.5
v 2.5 17 0.5
v 2.5 17 -0.5
v 2.5 18 5.5
v 2.5 18 4.5
v 2.5 18 0.5
v 2.5 18 -0.5
v 3.5 17 4.5
v 3.5 17 0.5
v 3.5 18 4.5
v 3.5 18 0.5
v -1.5 17 8.5
v -1.5 18 8.5
v -0.5 17 8.5
v -0.5 18 8.5
v -2.5 17 7.5
v -2.5 18 7.5
v -1.5 17 7.5
v -1.5 18 7.5
v -0.5 17 7.5
v -0.5 18 7.5
v 0.5 17 7.5
v 0.5 18 7.5
v -3.5 17 6.5
v -3.5 18 6.5
v -2.5 17 6.5
v -2.5 18 6.5
v 0.5 17 6.5
v 0.5 18 6.5
v 1.5 17 6.5
v 1.5 18 6.5
v -4.5 17 5.5
v -4.5 18 5.5
v -3.5 17 5.5
v -3.5 18 5.5
v 1.5 17 5.5
v 1.5 18 5.5
v 2.5 17 5.5
v 2.5 18 5.5
v -5.5 17 4.5
v -5.5 18 4.5
v -4.5 17 4.5
v -4.5 18 4.5
v 2.5 17 4.5
v 2.5 18 4.5
v 3.5 17 4.5
v 3.5 18 4.5
v -0.5 17 -3.5
v -0.5 18 -3.5
v 0.5 17 -3.5
v 0.5 18 -3.5
v -5.5 17 0.5
v -5.5 18 0.5
v -4.5 17 0.5
v -4.5 18 0.5
v 2.5 17 0.5
v 2.5 18 0.5
v 3.5 17 0.5
v 3.5 18 0.5
v -4.5 17 -0.5
v -4.5 18 -0.5
v -3.5 17 -0.5
v -3.5 18 -0.5
v 1.5 17 -0.5
v 1.5 18 -0.5
v 2.5 17 -0.5
v 2.5 18 -0.5
v -3.5 17 -1.5
v -3.5 18 -1.5
v -1.5 17 -1.5
v -1.5 18 -1.5
v -0.5 17 -1.5
v -0.5 18 -1.5
v 1.5 17 -1.5
v 1.5 18 -1.5
v -1.5 17 -5.5
v -1.5 18 -5.5
v 0.5 17 -5.5
v 0.5 18 -5.5
v -1.5 17 8.5
v -0.5 17 8.5
v -2.5 17 7.5
v -1.5 17 7.5
v -0.5 17 7.5
v 0.5 17 7.5
v -3.5 17 6.5
v -2.5 17 6.5
v -1.5 17 6.5
v -0.5 17 6.5
v 0.5 17 6.5
v 1.5 17 6.5
v -4.5 17 5.5
v -3.5 17 5.5
v -2.5 17 5.5
v 0.5 17 5.5
v 1.5 17 5.5
v 2.5 17 5.5
v -5.5 17 4.5
v -4.5 17 4.5
v -3.5 17 4.5
v -2.5 17 4.5
v -1.5 17 4.5
v -0.5 17 4.5
v 0.5 17 4.5
v 1.5 17 4.5
v 2.5 17 4.5
v 3.5 17 4.5
v -2.5 17 3.5
v -1.5 17 3.5
v -0.5 17 3.5
v 0.5 17 3.5
v -4.5 17 2.5
v -2.5 17 2.5
v 0.5 17 2.5
v 2.5 17 2.5
v -4.5 17 1.5
v -2.5 17 1.5
v -1.5 17 1.5
v -0.5 17 1.5
v 0.5 17 1.5
v 2.5 17 1.5
v -5.5 17 0.5
v -4.5 17 0.5
v -3.5 17 0.5
v -2.5 17 0.5
v -1.5 17 0.5
v -0.5 17 0.5
v 0.5 17 0.5
v 1.5 17 0.5
v 2.5 17 0.5
v 3.5 17 0.5
v -4.5 17 -0.5
v -3.5 17 -0.5
v -1.5 17 -0.5
v -0.5 17 -0.5
v 1.5 17 -0.5
v 2.5 17 -0.5
v -3.5 17 -1.5
v -1.5 17 -1.5
v -0.5 17 -1.5
v 1.5 17 -1.5
v -0.5 17 -3.5
v 0.5 17 -3.5
v -1.5 17 -5.5
v 0.5 17 -5.5
v -1.5 18 8.5
v -0.5 18 8.5
v -2.5 18 7.5
v -1.5 18 7.5
v -0.5 18 7.5
v 0.5 18 7.5
v -3.5 18 6.5
v -2.5 18 6.5
v -1.5 18 6.5
v -0.5 18 6.5
v 0.5 18 6.5
v 1.5 18 6.5
v -4.5 18 5.5
v -3.5 18 5.5
v -2.5 18 5.5
v 0.5 18 5.5
v 1.5 18 5.5
v 2.5 18 5.5
v -5.5 18 4.5
v -4.5 18 4.5
v -3.5 18 4.5
v -2.5 18 4.5
v -1.5 18 4.5
v -0.5 18 4.5
v 0.5 18 4.5
v 1.5 18 4.5
v 2.5 18 4.5
v 3.5 18 4.5
v -2.5 18 3.5
v -1.5 18 3.5
v -0.5 18 3.5
v 0.5 18 3.5
v -4.5 18 2.5
v -2.5 18 2.5
v 0.5 18 2.5
v 2.5 18 2.5
v -4.5 18 1.5
v -2.5 18 1.5
v -1.5 18 1.5
v -0.5 18 1.5
v 0.5 18 1.5
v 2.5 18 1.5
v -5.5 18 0.5
v -4.5 18 0.5
v -3.5 18 0.5
v -2.5 18 0.5
v -1.5 18 0.5
v -0.5 18 0.5
v 0.5 18 0.5
v 1.5 18 0.5
v 2.5 18 0.5
v 3.5 18 0.5
v -4.5 18 -0.5
v -3.5 18 -0.5
v -1.5 18 -0.5
v -0.5 18 -0.5
v 1.5 18 -0.5
v 2.5 18 -0.5
v -3.5 18 -1.5
v -1.5 18 -1.5
v -0.5 18 -1.5
v 1.5 18 -1.5
v -0.5 18 -3.5
v 0.5 18 -3.5
v -1.5 18 -5.5
v 0.5 18 -5.5

# faces
f 3/3/1 2/3/1 1/3/1
f 4/3/1 2/3/1 3/3/1
f 9/3/1 6/3/1 5/3/1
f 10/3/1 6/3/1 9/3/1
f 11/3/1 8/3/1 7/3/1
f 12/3/1 8/3/1 11/3/1
f 17/3/1 14/3/1 13/3/1
f 18/3/1 14/3/1 17/3/1
f 19/3/1 16/3/1 15/3/1
f 20/3/1 16/3/1 19/3/1
f 23/3/1 22/3/1 21/3/1
f 24/3/1 22/3/1 23/3/1
f 29/3/1 26/3/1 25/3/1
f 30/3/1 26/3/1 29/3/1
f 31/3/1 28/3/1 27/3/1
f 32/3/1 28/3/1 31/3/1
f 33/3/2 34/3/2 37/3/2
f 37/3/2 34/3/2 38/3/2
f 35/3/2 36/3/2 39/3/2
f 39/3/2 36/3/2 40/3/2
f 41/3/2 42/3/2 45/3/2
f 45/3/2 42/3/2 46/3/2
f 43/3/2 44/3/2 47/3/2
f 47/3/2 44/3/2 48/3/2
f 49/3/2 50/3/2 53/3/2
f 53/3/2 50/3/2 54/3/2
f 51/3/2 52/3/2 55/3/2
f 55/3/2 52/3/2 56/3/2
f 57/3/2 58/3/2 61/3/2
f 61/3/2 58/3/2 62/3/2
f 59/3/2 60/3/2 63/3/2
f 63/3/2 60/3/2 64/3/2
f 65/3/2 66/3/2 67/3/2
f 67/3/2 66/3/2 68/3/2
f 71/3/3 70/3/3 69/3/3
f 72/3/3 70/3/3 71/3/3
f 75/3/3 74/3/3 73/3/3
f 76/3/3 74/3/3 75/3/3
f 79/3/3 78/3/3 77/3/3
f 80/3/3 78/3/3 79/3/3
f 83/3/3 82/3/3 81/3/3
f 84/3/3 82/3/3 83/3/3
f 87/3/3 86/3/3 85/3/3
f 88/3/3 86/3/3 87/3/3
f 91/3/3 90/3/3 89/3/3
f 92/3/3 90/3/3 91/3/3
f 95/3/3 94/3/3 93/3/3
f 96/3/3 94/3/3 95/3/3
f 99/3/3 98/3/3 97/3/3
f 100/3/3 98/3/3 99/3/3
f 103/3/3 102/3/3 101/3/3
f 104/3/3 102/3/3 103/3/3
f 107/3/3 106/3/3 105/3/3
f 108/3/3 106/3/3 107/3/3
f 109/3/4 110/3/4 111/3/4
f 111/3/4 110/3/4 112/3/4
f 113/3/4 114/3/4 115/3/4
f 115/3/4 114/3/4 116/3/4
f 117/3/4 118/3/4 119/3/4
f 119/3/4 118/3/4 120/3/4
f 121/3/4 122/3/4 123/3/4
f 123/3/4 122/3/4 124/3/4
f 125/3/4 126/3/4 127/3/4
f 127/3/4 126/3/4 128/3/4
f 129/3/4 130/3/4 131/3/4
f 131/3/4 130/3/4 132/3/4
f 133/3/4 134/3/4 135/3/4
f 135/3/4 134/3/4 136/3/4
f 140/3/5 138/3/5 137/3/5
f 141/3/5 138/3/5 140/3/5
f 144/3/5 140/3/5 139/3/5
f 145/2/5 141/2/5 140/2/5
f 145/3/5 140/3/5 144/3/5
f 146/3/5 142/3/5 141/3/5
f 146/2/5 141/2/5 145/2/5
f 147/3/5 142/3/5 146/3/5
f 150/3/5 144/3/5 143/3/5
f 151/2/5 145/2/5 144/2/5
f 151/2/5 146/2/5 145/2/5
f 151/3/5 144/3/5 150/3/5
f 151/2/5 147/2/5 146/2/5
f 152/3/5 148/3/5 147/3/5
f 152/2/5 147/2/5 151/2/5
f 153/3/5 148/3/5 152/3/5
f 156/3/5 150/3/5 149/3/5
f 157/1/5 151/1/5 150/1/5
f 157/3/5 150/3/5 156/3/5
f 158/2/5 152/2/5 151/2/5
f 158/1/5 151/1/5 157/1/5
f 159/2/5 152/2/5 158/2/5
f 160/2/5 152/2/5 159/2/5
f 161/1/5 153/1/5 152/1/5
f 161/2/5 152/2/5 160/2/5
f 162/3/5 154/3/5 153/3/5
f 162/1/5 153/1/5 161/1/5
f 163/3/5 154/3/5 162/3/5
f 165/2/5 157/2/5 156/2/5
f 165/2/5 158/2/5 157/2/5
f 165/1/5 159/1/5 158/1/5
f 166/2/5 160/2/5 159/2/5
f 166/1/5 159/1/5 165/1/5
f 167/1/5 161/1/5 160/1/5
f 167/2/5 160/2/5 166/2/5
f 168/2/5 163/2/5 162/2/5
f 168/1/5 161/1/5 167/1/5
f 168/2/5 162/2/5 161/2/5
f 169/2/5 166/2/5 165/2/5
f 169/3/5 156/3/5 155/3/5
f 169/2/5 165/2/5 156/2/5
f 170/2/5 166/2/5 169/2/5
f 171/2/5 163/2/5 168/2/5
f 171/2/5 168/2/5 167/2/5
f 172/3/5 164/3/5 163/3/5
f 172/2/5 163/2/5 171/2/5
f 173/1/5 170/1/5 169/1/5
f 173/3/5 169/3/5 155/3/5
f 174/2/5 166/2/5 170/2/5
f 174/1/5 170/1/5 173/1/5
f 175/1/5 167/1/5 166/1/5
f 175/2/5 166/2/5 174/2/5
f 176/2/5 171/2/5 167/2/5
f 176/1/5 167/1/5 175/1/5
f 177/1/5 172/1/5 171/1/5
f 177/2/5 171/2/5 176/2/5
f 178/3/5 164/3/5 172/3/5
f 178/1/5 172/1/5 177/1/5
f 179/3/5 173/3/5 155/3/5
f 180/2/5 174/2/5 173/2/5
f 180/3/5 173/3/5 179/3/5
f 181/2/5 174/2/5 180/2/5
f 182/1/5 177/1/5 176/1/5
f 182/2/5 174/2/5 181/2/5
f 182/1/5 175/1/5 174/1/5
f 182/1/5 176/1/5 175/1/5
f 183/1/5 177/1/5 182/1/5
f 184/1/5 177/1/5 183/1/5
f 185/2/5 178/2/5 177/2/5
f 185/1/5 177/1/5 184/1/5
f 186/2/5 178/2/5 185/2/5
f 187/3/5 164/3/5 178/3/5
f 187/2/5 178/2/5 186/2/5
f 188/3/5 164/3/5 187/3/5
f 189/3/5 181/3/5 180/3/5
f 190/2/5 182/2/5 181/2/5
f 190/3/5 181/3/5 189/3/5
f 190/2/5 183/2/5 182/2/5
f 191/1/5 184/1/5 183/1/5
f 191/2/5 183/2/5 190/2/5
f 192/2/5 186/2/5 185/2/5
f 192/1/5 184/1/5 191/1/5
f 192/2/5 185/2/5 184/2/5
f 193/3/5 187/3/5 186/3/5
f 193/2/5 186/2/5 192/2/5
f 194/3/5 187/3/5 193/3/5
f 195/3/5 191/3/5 190/3/5
f 196/1/5 192/1/5 191/1/5
f 196/3/5 191/3/5 195/3/5
f 197/3/5 193/3/5 192/3/5
f 197/1/5 192/1/5 196/1/5
f 198/3/5 193/3/5 197/3/5
f 199/3/5 197/3/5 196/3/5
f 201/3/5 199/3/5 196/3/5
f 201/3/5 200/3/5 199/3/5
f 202/3/5 200/3/5 201/3/5
f 203/3/6 204/3/6 206/3/6
f 206/3/6 204/3/6 207/3/6
f 205/3/6 206/3/6 210/3/6
f 206/2/6 207/2/6 211/2/6
f 210/3/6 206/3/6 211/3/6
f 207/3/6 208/3/6 212/3/6
f 211/2/6 207/2/6 212/2/6
f 212/3/6 208/3/6 213/3/6
f 209/3/6 210/3/6 216/3/6
f 210/2/6 211/2/6 217/2/6
f 211/2/6 212/2/6 217/2/6
f 216/3/6 210/3/6 217/3/6
f 212/2/6 213/2/6 217/2/6
f 213/3/6 214/3/6 218/3/6
f 217/2/6 213/2/6 218/2/6
f 218/3/6 214/3/6 219/3/6
f 215/3/6 216/3/6 222/3/6
f 216/1/6 217/1/6 223/1/6
f 222/3/6 216/3/6 223/3/6
f 217/2/6 218/2/6 224/2/6
f 223/1/6 217/1/6 224/1/6
f 224/2/6 218/2/6 225/2/6
f 225/2/6 218/2/6 226/2/6
f 218/1/6 219/1/6 227/1/6
f 226/2/6 218/2/6 227/2/6
f 219/3/6 220/3/6 228/3/6
f 227/1/6 219/1/6 228/1/6
f 228/3/6 220/3/6 229/3/6
f 222/2/6 223/2/6 231/2/6
f 223/2/6 224/2/6 231/2/6
f 224/1/6 225/1/6 231/1/6
f 225/2/6 226/2/6 232/2/6
f 231/1/6 225/1/6 232/1/6
f 226/1/6 227/1/6 233/1/6
f 232/2/6 226/2/6 233/2/6
f 228/2/6 229/2/6 234/2/6
f 233/1/6 227/1/6 234/1/6
f 227/2/6 228/2/6 234/2/6
f 231/2/6 232/2/6 235/2/6
f 221/3/6 222/3/6 235/3/6
f 222/2/6 231/2/6 235/2/6
f 235/2/6 232/2/6 236/2/6
f 234/2/6 229/2/6 237/2/6
f 233/2/6 234/2/6 237/2/6
f 229/3/6 230/3/6 238/3/6
f 237/2/6 229/2/6 238/2/6
f 235/1/6 236/1/6 239/1/6
f 221/3/6 235/3/6 239/3/6
f 236/2/6 232/2/6 240/2/6
f 239/1/6 236/1/6 240/1/6
f 232/1/6 233/1/6 241/1/6
f 240/2/6 232/2/6 241/2/6
f 233/2/6 237/2/6 242/2/6
f 241/1/6 233/1/6 242/1/6
f 237/1/6 238/1/6 243/1/6
f 242/2/6 237/2/6 243/2/6
f 238/3/6 230/3/6 244/3/6
f 243/1/6 238/1/6 244/1/6
f 221/3/6 239/3/6 245/3/6
f 239/2/6 240/2/6 246/2/6
f 245/3/6 239/3/6 246/3/6
f 246/2/6 240/2/6 247/2/6
f 242/1/6 243/1/6 248/1/6
f 247/2/6 240/2/6 248/2/6
f 240/1/6 241/1/6 248/1/6
f 241/1/6 242/1/6 248/1/6
f 248/1/6 243/1/6 249/1/6
f 249/1/6 243/1/6 250/1/6
f 243/2/6 244/2/6 251/2/6
f 250/1/6 243/1/6 251/1/6
f 251/2/6 244/2/6 252/2/6
f 244/3/6 230/3/6 253/3/6
f 252/2/6 244/2/6 253/2/6
f 253/3/6 230/3/6 254/3/6
f 246/3/6 247/3/6 255/3/6
f 247/2/6 248/2/6 256/2/6
f 255/3/6 247/3/6 256/3/6
f 248/2/6 249/2/6 256/2/6
f 249/1/6 250/1/6 257/1/6
f 256/2/6 249/2/6 257/2/6
f 251/2/6 252/2/6 258/2/6
f 257/1/6 250/1/6 258/1/6
f 250/2/6 251/2/6 258/2/6
f 252/3/6 253/3/6 259/3/6
f 258/2/6 252/2/6 259/2/6
f 259/3/6 253/3/6 260/3/6
f 256/3/6 257/3/6 261/3/6
f 257/1/6 258/1/6 262/1/6
f 261/3/6 257/3/6 262/3/6
f 258/3/6 259/3/6 263/3/6
f 262/1/6 258/1/6 263/1/6
f 263/3/6 259/3/6 264/3/6
f 262/3/6 263/3/6 265/3/6
f 262/3/6 265/3/6 267/3/6
f 265/3/6 266/3/6 267/3/6
f 267/3/6 266/3/6 268/3/6
